<?xml version="1.0" encoding="utf-8"?>
<!-- Generator: Adobe Illustrator 18.0.0, SVG Export Plug-In . SVG Version: 6.00 Build 0)  -->
<!DOCTYPE svg PUBLIC "-//W3C//DTD SVG 1.1//EN" "http://www.w3.org/Graphics/SVG/1.1/DTD/svg11.dtd">
<svg version="1.1" id="图层_1" xmlns="http://www.w3.org/2000/svg" xmlns:xlink="http://www.w3.org/1999/xlink" x="0px" y="0px"
	 viewBox="0 0 612 792" enable-background="new 0 0 612 792" xml:space="preserve">
<path d="M299.6,597.9c69.2-58,126.4-106.7,221.6-184.6c10-8.1,8.5-14,7.5-16.1c-0.3,0.5-0.5,0.9-0.5,0.9v-1.9c0,0,0.3,0.5,0.5,1
	c0.9-1.9,2-7.2-7.5-15.4C446.4,316.6,373,255.4,299.6,194.1c-28.3-23.6-26.8,18.6-26.8,23.4c0,27.8,0,70.4,0,108.3H109.3
	c-12.8,0-26.6,13.5-26.6,26.5v87.6c0,14.3,11.2,25.2,28.2,25.2h161.8c0,33.9,0,76.7,0,108C272.8,577.8,271.4,621.5,299.6,597.9z"/>
</svg>
