<?xml version="1.0" encoding="utf-8"?>
<!-- Generator: Adobe Illustrator 18.0.0, SVG Export Plug-In . SVG Version: 6.00 Build 0)  -->
<!DOCTYPE svg PUBLIC "-//W3C//DTD SVG 1.1//EN" "http://www.w3.org/Graphics/SVG/1.1/DTD/svg11.dtd">
<svg version="1.1" id="图层_1" xmlns="http://www.w3.org/2000/svg" xmlns:xlink="http://www.w3.org/1999/xlink" x="0px" y="0px"
	 viewBox="0 0 612 792" enable-background="new 0 0 612 792" xml:space="preserve">
<path fill-rule="evenodd" clip-rule="evenodd" d="M508,402.4C450,333.2,401.3,276,323.4,180.8c-8.1-10-14-8.5-16.1-7.5
	c0.5,0.3,0.9,0.5,0.9,0.5h-1.9c0,0,0.5-0.3,1-0.5c-1.9-0.9-7.2-2-15.4,7.5C226.7,255.6,165.5,329,104.2,402.4
	c-23.6,28.3,18.6,26.8,23.4,26.8c27.8,0,70.4,0,108.3,0v163.5c0,12.8,13.5,26.6,26.5,26.6h87.6c14.3,0,25.2-11.2,25.2-28.2V429.3
	c33.9,0,76.7,0,108,0C487.9,429.2,531.6,430.6,508,402.4z"/>
</svg>
