<?xml version="1.0" encoding="utf-8"?>
<!-- Generator: Adobe Illustrator 18.0.0, SVG Export Plug-In . SVG Version: 6.00 Build 0)  -->
<!DOCTYPE svg PUBLIC "-//W3C//DTD SVG 1.1//EN" "http://www.w3.org/Graphics/SVG/1.1/DTD/svg11.dtd">
<svg version="1.1" id="图层_1" xmlns="http://www.w3.org/2000/svg" xmlns:xlink="http://www.w3.org/1999/xlink" x="0px" y="0px"
	 viewBox="0 0 612 792" enable-background="new 0 0 612 792" xml:space="preserve">
<path d="M104,389.5c58,69.2,106.7,126.4,184.6,221.6c8.1,10,14,8.5,16.1,7.5c-0.5-0.3-0.9-0.5-0.9-0.5h1.9c0,0-0.5,0.3-1,0.5
	c1.9,0.9,7.2,2,15.4-7.5c65.2-74.8,126.4-148.2,187.7-221.6c23.6-28.3-18.6-26.8-23.4-26.8c-27.8,0-70.4,0-108.3,0V199.2
	c0-12.8-13.5-26.6-26.5-26.6H262c-14.3,0-25.2,11.2-25.2,28.2v161.8c-33.9,0-76.7,0-108,0C124.1,362.7,80.4,361.3,104,389.5z"/>
</svg>
