<?xml version="1.0" encoding="utf-8"?>
<!-- Generator: Adobe Illustrator 16.0.0, SVG Export Plug-In . SVG Version: 6.00 Build 0)  -->
<!DOCTYPE svg PUBLIC "-//W3C//DTD SVG 1.1//EN" "http://www.w3.org/Graphics/SVG/1.1/DTD/svg11.dtd">
<svg version="1.1" id="图层_1" xmlns="http://www.w3.org/2000/svg" xmlns:xlink="http://www.w3.org/1999/xlink" x="0px" y="0px"
	 width="70.867px" height="70.863px" viewBox="0 0 70.867 70.863" enable-background="new 0 0 70.867 70.863" xml:space="preserve">
<path fill="#221E1F" d="M3.457,35.431c0,17.631,14.344,31.979,31.977,31.979c17.63,0,31.977-14.348,31.977-31.979
	c0-17.632-14.347-31.979-31.977-31.979C17.799,3.454,3.457,17.8,3.457,35.431z M8.562,35.431c0-14.815,12.055-26.869,26.871-26.869
	c14.814,0,26.872,12.054,26.872,26.869c0,14.816-12.058,26.871-26.872,26.871C20.617,62.302,8.562,50.25,8.562,35.431z
	 M46.281,45.177l0.793,0.705l-1.205,1.882c-1.332,0.728-2.703,1.271-4.115,1.633c-1.41,0.36-2.852,0.543-4.322,0.543
	c-2.88,0-5.326-0.549-7.333-1.646c-2.009-1.097-3.563-2.686-4.658-4.762c-1.099-2.077-1.646-4.547-1.646-7.408
	c0-2.528,0.421-4.728,1.266-6.6c0.842-1.871,2.022-3.336,3.541-4.396c1.52-1.058,3.416-2.097,5.688-3.116
	c1.608-0.725,3.4-1.087,5.378-1.087c1.513,0,2.812,0.123,3.896,0.369c1.088,0.246,2.258,0.685,3.513,1.313
	c-0.49,2.595-0.755,5.188-0.793,7.785H44.43V28.92c0-1.254-0.182-2.141-0.545-2.661c-0.363-0.519-1.189-1.032-2.484-1.543
	c-1.293-0.509-2.702-0.764-4.231-0.764c-2.645,0-4.684,0.808-6.115,2.422c-1.43,1.615-2.146,4.027-2.146,7.237
	c0,4.131,1.06,7.438,3.176,9.924c1.9,2.252,4.352,3.377,7.35,3.377c1.176,0,2.332-0.146,3.469-0.44
	C44.04,46.177,45.164,45.746,46.281,45.177z"/>
</svg>
