<?xml version="1.0" encoding="utf-8"?>
<!-- Generator: Adobe Illustrator 16.0.0, SVG Export Plug-In . SVG Version: 6.00 Build 0)  -->
<!DOCTYPE svg PUBLIC "-//W3C//DTD SVG 1.1//EN" "http://www.w3.org/Graphics/SVG/1.1/DTD/svg11.dtd">
<svg version="1.1" id="图层_1" xmlns="http://www.w3.org/2000/svg" xmlns:xlink="http://www.w3.org/1999/xlink" x="0px" y="0px"
	 width="70.867px" height="70.863px" viewBox="0 0 70.867 70.863" enable-background="new 0 0 70.867 70.863" xml:space="preserve">
<path d="M3.456,35.431c0,17.633,14.346,31.979,31.978,31.979s31.978-14.346,31.978-31.979c0-17.632-14.346-31.979-31.978-31.979
	S3.456,17.8,3.456,35.431z M8.562,35.431c0-14.816,12.054-26.87,26.87-26.87c14.814,0,26.871,12.054,26.871,26.87
	S50.246,62.302,35.432,62.302C20.616,62.302,8.562,50.248,8.562,35.431z M39.281,38.957c-0.113,0.488-0.323,0.961-0.647,1.385
	c-0.628,0.824-1.538,1.299-2.492,1.405c-0.949,0.149-1.954-0.068-2.775-0.698c-0.377-0.287-0.677-0.638-0.907-1.021
	c-3.597-3.608-13.909-15.02-13.909-15.02s11.177,5.651,16.612,8.605c3.763-3.244,10.303-8.41,10.303-8.41
	S41.274,35.06,39.281,38.957z"/>
</svg>
