<?xml version="1.0" encoding="utf-8"?>
<!-- Generator: Adobe Illustrator 16.0.0, SVG Export Plug-In . SVG Version: 6.00 Build 0)  -->
<!DOCTYPE svg PUBLIC "-//W3C//DTD SVG 1.1//EN" "http://www.w3.org/Graphics/SVG/1.1/DTD/svg11.dtd">
<svg version="1.1" id="图层_1" xmlns="http://www.w3.org/2000/svg" xmlns:xlink="http://www.w3.org/1999/xlink" x="0px" y="0px"
	 width="70.867px" height="70.863px" viewBox="0 0 70.867 70.863" enable-background="new 0 0 70.867 70.863" xml:space="preserve">
<g>
	<path fill="#221E1F" d="M63.952,20.969C55.979,5.244,36.695-1.063,20.971,6.911C5.246,14.885-1.06,34.168,6.913,49.891
		c7.975,15.728,27.257,22.032,42.981,14.062C65.62,55.977,71.928,36.695,63.952,20.969z M47.586,59.398
		c-13.217,6.698-29.418,1.398-36.119-11.815c-6.699-13.213-1.4-29.416,11.813-36.116c13.213-6.699,29.418-1.4,36.119,11.813
		C66.102,36.495,60.797,52.697,47.586,59.398z"/>
	<path fill="#221E1F" d="M46.195,53.501c5.658-3.382,9.128-9.017,9.972-15.071l-2.56-0.354c-0.739,5.308-3.778,10.243-8.735,13.208
		c-3.703,2.213-7.873,2.964-11.84,2.425l0.002-0.001c-1.32-0.179-2.615-0.5-3.867-0.957c-0.001-0.001-0.002-0.001-0.004-0.002
		c-3.243-1.186-6.166-3.293-8.348-6.213l-2.018,1.612c2.484,3.298,5.798,5.683,9.475,7.024
		C33.989,57.267,40.564,56.868,46.195,53.501z"/>
	<path fill="#221E1F" d="M27.462,14.607c3.247-1.236,6.601-1.64,9.845-1.357l0.25-2.906c-3.664-0.315-7.455,0.166-11.123,1.563
		c-5.826,2.22-10.352,6.371-13.128,11.444l2.542,1.393C18.306,20.252,22.302,16.572,27.462,14.607z"/>
	<path fill="#221E1F" d="M57.573,23.42l-2.541,1.377c0.598,1.107,1.116,2.273,1.53,3.509c3.918,11.683-2.377,24.329-14.061,28.247
		c-1.109,0.372-2.229,0.622-3.348,0.813c-1.988,0.342-4.026,0.403-6.062,0.198l-0.299,2.879c2.205,0.224,4.418,0.164,6.58-0.183
		l0.004,0.023c0.164-0.026,0.33-0.069,0.498-0.101c0.115-0.021,0.233-0.03,0.353-0.054l-0.004-0.018
		c1.067-0.207,2.135-0.467,3.192-0.82c13.196-4.427,20.31-18.712,15.881-31.908C58.834,25.99,58.247,24.671,57.573,23.42z"/>
</g>
</svg>
