<?xml version="1.0" encoding="utf-8"?>
<!-- Generator: Adobe Illustrator 16.0.0, SVG Export Plug-In . SVG Version: 6.00 Build 0)  -->
<!DOCTYPE svg PUBLIC "-//W3C//DTD SVG 1.1//EN" "http://www.w3.org/Graphics/SVG/1.1/DTD/svg11.dtd">
<svg version="1.1" id="图层_1" xmlns="http://www.w3.org/2000/svg" xmlns:xlink="http://www.w3.org/1999/xlink" x="0px" y="0px"
	 width="70.867px" height="70.863px" viewBox="0 0 70.867 70.863" enable-background="new 0 0 70.867 70.863" xml:space="preserve">
<path fill="#221E1F" d="M64.74,23.021c-1.553-3.793-3.793-7.067-6.896-10.171C51.813,6.818,44.4,3.713,35.951,3.54h-0.518
	c-8.791,0-16.376,3.104-22.582,9.311c-6.205,6.378-9.309,13.79-9.309,22.581c0,8.792,3.104,16.377,9.309,22.583
	c6.206,6.207,13.791,9.309,22.582,9.309c8.793,0,16.206-3.102,22.41-9.309c6.033-5.861,9.138-12.929,9.48-21.029v-1.553
	C67.326,30.951,66.464,26.813,64.74,23.021z M51.121,10.61c2.242,1.379,4.139,2.931,5.861,4.827L45.085,24.4
	c-0.172,0-0.172,0-0.172,0.173c-0.345-0.346-0.858-0.689-1.379-1.035c-1.38-0.688-2.931-1.033-4.479-1.033c0,0,0,0,0-0.173
	L35.261,8.024C40.779,6.818,45.949,7.677,51.121,10.61z M46.468,36.984c-0.346,2.412-1.381,4.654-3.276,6.377
	c-2.066,2.242-4.826,3.274-7.756,3.274c-3.103,0-5.861-1.032-7.931-3.274c-2.242-2.066-3.274-4.826-3.274-7.93
	c0-2.931,1.032-5.517,3.274-7.759c2.067-2.064,4.828-3.272,7.931-3.272h0.516c2.76,0,5.174,1.208,7.24,3.272
	c1.035,0.863,1.725,2.07,2.414,3.104c0.518,1.551,0.862,3.103,0.862,4.652V36.984z M47.33,28.365
	c-0.174-0.691-0.52-1.38-0.861-1.896h0.172l11.896-9.137c1.379,2.241,2.412,4.482,3.272,7.067L47.33,28.365z M35.262,29.227
	c-1.724,0-3.274,0.688-4.481,1.896c-1.207,1.208-1.726,2.586-1.726,4.311c0,1.726,0.519,3.274,1.726,4.481
	c1.207,1.207,2.76,1.896,4.481,1.896c1.724,0,3.274-0.689,4.481-1.896s1.723-2.758,1.896-4.481
	c-0.174-1.725-0.688-3.104-1.896-4.311C38.537,29.916,36.986,29.227,35.262,29.227z"/>
</svg>
