<?xml version="1.0" encoding="utf-8"?>
<!-- Generator: Adobe Illustrator 16.0.0, SVG Export Plug-In . SVG Version: 6.00 Build 0)  -->
<!DOCTYPE svg PUBLIC "-//W3C//DTD SVG 1.1//EN" "http://www.w3.org/Graphics/SVG/1.1/DTD/svg11.dtd">
<svg version="1.1" id="图层_1" xmlns="http://www.w3.org/2000/svg" xmlns:xlink="http://www.w3.org/1999/xlink" x="0px" y="0px"
	 width="70.867px" height="70.863px" viewBox="0 0 70.867 70.863" enable-background="new 0 0 70.867 70.863" xml:space="preserve">
<g>
	<path fill="#221E1F" d="M35.434,3.453C17.802,3.453,3.457,17.8,3.457,35.43c0,17.632,14.345,31.979,31.977,31.979
		S67.412,53.062,67.412,35.43C67.412,17.8,53.066,3.453,35.434,3.453z M43.268,61.134c-2.48,0.758-5.11,1.169-7.834,1.169
		c-2.75,0-5.405-0.417-7.905-1.188V48.216h15.74V61.134z M47.34,59.51V48.216h0.001v-4.073H23.454v2.037v2.036v11.259
		C14.635,55.062,8.563,45.946,8.563,35.43c0-14.814,12.055-26.868,26.87-26.868c14.813,0,26.872,12.054,26.872,26.868
		C62.305,45.972,56.197,55.112,47.34,59.51z"/>
	
		<rect x="22.531" y="15.497" transform="matrix(-0.6685 -0.7437 0.7437 -0.6685 24.68 56.0385)" fill="#221E1F" width="4.596" height="14.043"/>
	
		<rect x="38.957" y="20.217" transform="matrix(-0.7438 -0.6684 0.6684 -0.7438 65.1268 69.9964)" fill="#221E1F" width="14.043" height="4.599"/>
</g>
</svg>
