<?xml version="1.0" encoding="utf-8"?>
<!-- Generator: Adobe Illustrator 16.0.0, SVG Export Plug-In . SVG Version: 6.00 Build 0)  -->
<!DOCTYPE svg PUBLIC "-//W3C//DTD SVG 1.1//EN" "http://www.w3.org/Graphics/SVG/1.1/DTD/svg11.dtd">
<svg version="1.1" id="图层_1" xmlns="http://www.w3.org/2000/svg" xmlns:xlink="http://www.w3.org/1999/xlink" x="0px" y="0px"
	 width="70.867px" height="70.863px" viewBox="0 0 70.867 70.863" enable-background="new 0 0 70.867 70.863" xml:space="preserve">
<text transform="matrix(1 0 0 1 297.6406 420.9451)" font-family="'AdobeSongStd-Light-GBpc-EUC-H'" font-size="12">icon-cat_life</text>
<text transform="matrix(1 0 0 1 297.6406 420.9451)" font-family="'AdobeSongStd-Light-GBpc-EUC-H'" font-size="12">icon-cat_life</text>
<text transform="matrix(1 0 0 1 297.6406 420.9451)" font-family="'AdobeSongStd-Light-GBpc-EUC-H'" font-size="12">icon-cat_life</text>
<path d="M28.438,21.276h-4.92c0.264,2.512,1.036,4.672,2.301,6.426C27.264,25.875,28.146,23.716,28.438,21.276z M38.199,3.574
	C20.632,2.05,5.103,15.101,3.576,32.665C2.05,50.23,15.103,65.763,32.668,67.289c17.564,1.523,33.098-11.525,34.623-29.094
	C68.816,20.631,55.764,5.099,38.199,3.574z M16.088,24.008l1.084-1.232l0.184,0.134c0.928,0.676,1.816,1.37,2.644,2.064l0.194,0.165
	l-1.183,1.329L18.826,26.3c-1.078-0.967-1.926-1.684-2.521-2.13L16.088,24.008z M18.584,33.871l-1.805-0.644l0.09-0.238
	c0.656-1.741,1.238-3.688,1.727-5.783l0.07-0.3l0.279,0.129c0.377,0.176,0.778,0.33,1.19,0.457l0.231,0.072l-0.064,0.231
	c-0.544,1.943-1.093,3.884-1.646,5.816L18.584,33.871z M20.612,33.964l-0.123-0.188c-0.252-0.391-0.543-0.751-0.861-1.079
	l-0.245-0.254l0.319-0.147c1.979-0.919,3.646-2.026,4.955-3.304c-1.529-2.112-2.463-4.705-2.773-7.713h-0.715l0.012,0.01
	l-1.201,1.328l-0.186-0.161c-1.168-1.018-2.092-1.773-2.746-2.251l-0.217-0.158l1.045-1.241l0.188,0.133
	c1.096,0.771,2.062,1.492,2.868,2.146V19.63h9.351v1.277c-0.397,3.106-1.53,5.816-3.366,8.089c1.231,1.249,2.81,2.271,4.69,3.036
	l0.324,0.132l-0.23,0.264c-0.266,0.31-0.575,0.707-0.92,1.189l-0.123,0.172l-0.189-0.092c-1.87-0.904-3.458-2.046-4.723-3.396
	c-1.35,1.348-3.006,2.541-4.93,3.562L20.612,33.964z M62.203,37.754C60.922,52.514,47.871,63.483,33.11,62.203
	c-4.354-0.379-8.373-1.787-11.851-3.955l28.347-45.631C57.918,17.797,63.105,27.347,62.203,37.754z M36.441,50.439h8.014v-2.207
	h-5.783V44.39h5.783v-2.207h-5.783v-2.861h5.83v-2.205h-8.061V50.439z M52.619,40.691c-1.197-0.785-2.885-0.785-4.189-0.074
	c-0.283,0.152-0.559,0.344-0.818,0.568v-0.861h-2.174v10.115h2.174v-3.842c0-1.439,0.082-2.078,0.15-2.355
	c0.154-0.594,0.463-1.08,0.947-1.484c0.473-0.395,0.99-0.586,1.586-0.586c0.508,0,0.9,0.113,1.197,0.35
	c0.295,0.232,0.494,0.588,0.607,1.09c0.053,0.215,0.112,0.729,0.112,1.98v4.85h2.177v-5.19c0.002-1.321-0.138-2.283-0.416-2.938
	C53.684,41.635,53.229,41.092,52.619,40.691z"/>
</svg>
