<?xml version="1.0" encoding="utf-8"?>
<!-- Generator: Adobe Illustrator 16.0.0, SVG Export Plug-In . SVG Version: 6.00 Build 0)  -->
<!DOCTYPE svg PUBLIC "-//W3C//DTD SVG 1.1//EN" "http://www.w3.org/Graphics/SVG/1.1/DTD/svg11.dtd">
<svg version="1.1" id="图层_1" xmlns="http://www.w3.org/2000/svg" xmlns:xlink="http://www.w3.org/1999/xlink" x="0px" y="0px"
	 width="70.867px" height="70.863px" viewBox="0 0 70.867 70.863" enable-background="new 0 0 70.867 70.863" xml:space="preserve">
<path fill="#221E1F" d="M36.54,3.474C18.917,2.865,4.083,16.704,3.474,34.326C2.866,51.947,16.706,66.781,34.329,67.388
	c17.621,0.608,32.453-13.23,33.063-30.854C68.002,18.915,54.161,4.083,36.54,3.474z M36.363,8.577
	C51.17,9.089,62.799,21.552,62.288,36.359c-0.513,14.807-12.976,26.438-27.783,25.928c-14.811-0.514-26.44-12.98-25.928-27.785
	C9.09,19.695,21.552,8.066,36.363,8.577z M50.344,54.414c-1.033,0.063-2.08,0.082-3.137,0.047
	C29.378,53.844,15.425,38.9,16.024,21.076c-2.811,3.793-4.543,8.445-4.72,13.521c-0.461,13.326,9.968,24.5,23.293,24.961
	C40.523,59.763,46.021,57.812,50.344,54.414z M37.5,23.506l-5.57,1.997l5.57,1.996l1.997,5.571l1.996-5.571l5.569-1.996
	l-5.569-1.997l-1.996-5.566L37.5,23.506z M31.12,29.18l-2.266,0.812l2.264,0.813l0.812,2.266l0.813-2.266l2.264-0.813l-2.264-0.812
	l-0.813-2.266L31.12,29.18z M27.018,20.548L23.804,21.7l3.214,1.152l1.151,3.214l1.152-3.214l3.213-1.152l-3.213-1.152l-1.152-3.213
	L27.018,20.548z"/>
</svg>
