<?xml version="1.0" encoding="utf-8"?>
<!-- Generator: Adobe Illustrator 16.0.0, SVG Export Plug-In . SVG Version: 6.00 Build 0)  -->
<!DOCTYPE svg PUBLIC "-//W3C//DTD SVG 1.1//EN" "http://www.w3.org/Graphics/SVG/1.1/DTD/svg11.dtd">
<svg version="1.1" id="图层_1" xmlns="http://www.w3.org/2000/svg" xmlns:xlink="http://www.w3.org/1999/xlink" x="0px" y="0px"
	 width="70.867px" height="70.863px" viewBox="0 0 70.867 70.863" enable-background="new 0 0 70.867 70.863" xml:space="preserve">
<path fill="#221E1F" d="M3.457,35.463c0,17.632,14.344,31.979,31.977,31.979c17.63,0,31.977-14.348,31.977-31.979
	c0-17.63-14.347-31.977-31.977-31.977C17.799,3.487,3.457,17.833,3.457,35.463z M8.562,35.463c0-14.813,12.055-26.869,26.871-26.869
	c14.814,0,26.872,12.057,26.872,26.869c0,14.818-12.058,26.873-26.872,26.873C20.617,62.336,8.562,50.281,8.562,35.463z
	 M47.287,42.945c-0.043,0.549-0.252,1.094-0.633,1.557c-0.998,1.23-2.828,1.459-4.064,0.518c-1.24-0.945-1.438-2.723-0.434-3.945
	c0.379-0.473,0.879-0.795,1.422-0.961l-5.6-4.272c-1.346,0.483-2.9,0.307-4.084-0.6c-1.187-0.905-1.726-2.323-1.556-3.702
	l-4.44-3.392c-0.091,0.137-0.188,0.271-0.297,0.399c-1.48,1.816-4.18,2.156-6.013,0.763c-1.836-1.4-2.121-4.021-0.646-5.837
	c0.107-0.131,0.223-0.257,0.342-0.37l-3.75-2.857C9.2,29.561,10.83,46.207,20.887,53.926c10.671,8.145,26.269,6.574,33.519-5.592
	l-7.115-5.387L47.287,42.945z M18.884,43.91c-1.833-1.396-2.119-4.018-0.641-5.832c1.479-1.813,4.183-2.156,6.015-0.758
	c1.834,1.396,2.123,4.018,0.644,5.836C23.419,44.969,20.717,45.306,18.884,43.91z M30.435,51.939c-1,1.229-2.826,1.455-4.064,0.514
	c-1.239-0.947-1.438-2.723-0.432-3.945c0.996-1.229,2.824-1.459,4.063-0.516C31.244,48.939,31.439,50.715,30.435,51.939z
	 M31.328,46.172c-1.834-1.396-2.12-4.018-0.641-5.834c1.479-1.814,4.18-2.154,6.014-0.758s2.121,4.02,0.645,5.832
	c-1.482,1.816-4.182,2.156-6.014,0.76H31.328z M45.714,52.275c-0.998,1.229-2.827,1.461-4.065,0.512
	c-1.239-0.943-1.438-2.719-0.435-3.945c1.004-1.229,2.828-1.457,4.07-0.512c1.237,0.947,1.437,2.723,0.432,3.945H45.714z"/>
</svg>
