<?xml version="1.0" encoding="utf-8"?>
<!-- Generator: Adobe Illustrator 16.0.0, SVG Export Plug-In . SVG Version: 6.00 Build 0)  -->
<!DOCTYPE svg PUBLIC "-//W3C//DTD SVG 1.1//EN" "http://www.w3.org/Graphics/SVG/1.1/DTD/svg11.dtd">
<svg version="1.1" id="图层_1" xmlns="http://www.w3.org/2000/svg" xmlns:xlink="http://www.w3.org/1999/xlink" x="0px" y="0px"
	 width="70.867px" height="70.863px" viewBox="0 0 70.867 70.863" enable-background="new 0 0 70.867 70.863" xml:space="preserve">
<path fill="#221E1F" d="M35.433,3.496c-17.64,0-31.936,14.297-31.936,31.935c0,17.64,14.296,31.937,31.936,31.937
	c17.639,0,31.936-14.297,31.936-31.937C67.367,17.793,53.07,3.496,35.433,3.496z M10.328,32.662L8.775,28.57
	c1.08-4.202,3.129-8.012,5.894-11.188l0.905,4.78l2.055-2.031l3.425,2.031l-5.817,6.944h-2.625l-0.115,2.539l2.855,2.878l0.11,2.538
	L10.328,32.662z M23.904,47.902l-4.75,9.715c-0.608-0.445-1.19-0.918-1.76-1.412l0.463-9.32l-1.483-2.877v-5.93l1.37-1.688
	l7.074,4.739L23.904,47.902z M26.416,16.917l-4.223,2.537l-2.625-6.094l1.939-1.524l6.502,0.675L26.416,16.917z M50.602,33
	l-2.054,0.51l-0.909,2.879l-0.914-1.524l-1.371-3.049l-1.597-0.677l-0.569,2.536l-1.601,1.02l-3.42-4.064l2.394,5.252l-1.252,6.938
	l-2.166,9.313l-1.827-1.016L33.718,38.42h-3.652l-0.799-5.587l2.397-4.573l5.479,0.511l-0.23-1.692l-2.967-2.372l-2.627,2.199
	l-0.795-1.523l2.053-2.877l4.908-2.708l-3.197-2.71l3.881-1.522l3.422,1.017l10.438-3.096c3.111,2.356,5.709,5.357,7.591,8.809
	l-1.938,3.938h-2.056l0.571,4.063L53.8,32.326v3.559l-1.024,0.675L50.602,33z M55.509,37.234l0.8,1.186l-0.912,3.047l-1.601-0.338
	L55.509,37.234z M57.828,51.41l-0.152-0.121l-3.309,0.678V48.07l3.652-3.726l1.022,0.677l1.371-0.166l0.461,1.065
	C60.07,47.873,59.042,49.713,57.828,51.41z M58.246,41.465l0.113-1.521l2.969,2.199l-0.227,1.018L58.246,41.465z"/>
</svg>
