<?xml version="1.0" encoding="utf-8"?>
<!-- Generator: Adobe Illustrator 18.0.0, SVG Export Plug-In . SVG Version: 6.00 Build 0)  -->
<!DOCTYPE svg PUBLIC "-//W3C//DTD SVG 1.1//EN" "http://www.w3.org/Graphics/SVG/1.1/DTD/svg11.dtd">
<svg version="1.1" id="图层_1" xmlns="http://www.w3.org/2000/svg" xmlns:xlink="http://www.w3.org/1999/xlink" x="0px" y="0px"
	 viewBox="0 0 612 792" enable-background="new 0 0 612 792" xml:space="preserve">
<g>
	<path fill="#2B2523" d="M306,634.8c-1.6,0-3.2-0.4-4.7-1.1L92.8,529.5c-3.5-1.8-5.8-5.4-5.8-9.3V196.9c0-3.6,1.9-7,4.9-8.9
		c3.1-1.9,6.9-2.1,10.1-0.5L306,289.5l203.9-101.9c3.2-1.6,7.1-1.5,10.1,0.5c3.1,1.9,4.9,5.3,4.9,8.9v323.3c0,4-2.2,7.6-5.8,9.3
		L310.7,633.7C309.2,634.5,307.6,634.8,306,634.8z M107.9,513.7L306,612.8l198.1-99.1v-300l-193.5,96.7c-2.9,1.5-6.4,1.5-9.3,0
		l-193.5-96.7V513.7z"/>
	<path fill="#2B2523" d="M306,259.4c-1.6,0-3.2-0.4-4.7-1.1l-166.8-83.4c-5.2-2.6-7.2-8.8-4.7-14c2.6-5.1,8.8-7.2,14-4.7L306,237.3
		l162.2-81.1c5.2-2.6,11.4-0.5,14,4.7c2.6,5.2,0.5,11.4-4.7,14l-166.8,83.4C309.2,259.1,307.6,259.4,306,259.4z"/>
	<path fill="#2B2523" d="M306,634.8c-5.8,0-10.4-4.7-10.4-10.4V301.1c0-5.8,4.7-10.4,10.4-10.4c5.8,0,10.4,4.7,10.4,10.4v323.3
		C316.4,630.2,311.8,634.8,306,634.8z"/>
</g>
</svg>
