<?xml version="1.0" encoding="utf-8"?>
<!-- Generator: Adobe Illustrator 18.0.0, SVG Export Plug-In . SVG Version: 6.00 Build 0)  -->
<!DOCTYPE svg PUBLIC "-//W3C//DTD SVG 1.1//EN" "http://www.w3.org/Graphics/SVG/1.1/DTD/svg11.dtd">
<svg version="1.1" id="图层_1" xmlns="http://www.w3.org/2000/svg" xmlns:xlink="http://www.w3.org/1999/xlink" x="0px" y="0px"
	 viewBox="0 0 612 792" enable-background="new 0 0 612 792" xml:space="preserve">
<text transform="matrix(1 0 0 1 2569.2002 3723.5515)" font-family="'AdobeSongStd-Light-GBpc-EUC-H'" font-size="103.5825">icon-cat_life</text>
<text transform="matrix(1 0 0 1 2569.2002 3723.5515)" font-family="'AdobeSongStd-Light-GBpc-EUC-H'" font-size="103.5825">icon-cat_life</text>
<text transform="matrix(1 0 0 1 2569.2002 3723.5515)" font-family="'AdobeSongStd-Light-GBpc-EUC-H'" font-size="103.5825">icon-cat_life</text>
<g>
	<path fill="#221E1F" d="M105.1,173.6c1.5,0,405.5,0,406.3,0c16.3,2.2,29,19.3,29,40.9c0,20.8-12.6,37.9-28.2,40.9
		c-1.5,0-406.3,0.7-407.8,0.7c-17.8,0-32.7-17.8-32.7-41.6C71.7,191.4,86.5,173.6,105.1,173.6z"/>
	<path fill="#221E1F" d="M105.1,354.8c1.5,0,405.5,0,406.3,0c16.3,2.2,29,19.3,29,41.6c0,20.8-12.6,37.9-28.2,40.9
		c-1.5-0.7-406.3,0-407.8,0c-17.8,0-32.7-17.8-32.7-41.6C71.7,373.4,86.5,354.8,105.1,354.8z"/>
	<path fill="#221E1F" d="M105.1,536.1c1.5,0,405.5,0,406.3,0c16.3,2.2,29,19.3,29,41.6c0,20.8-12.6,37.9-28.2,40.9
		c-0.7,0.7-405.5,0.7-407,0.7c-18.6-0.7-32.7-18.6-32.7-42.3C71.7,554.6,86.5,536.1,105.1,536.1z"/>
</g>
</svg>
