<?xml version="1.0" encoding="utf-8"?>
<!-- Generator: Adobe Illustrator 18.0.0, SVG Export Plug-In . SVG Version: 6.00 Build 0)  -->
<!DOCTYPE svg PUBLIC "-//W3C//DTD SVG 1.1//EN" "http://www.w3.org/Graphics/SVG/1.1/DTD/svg11.dtd">
<svg version="1.1" id="图层_1" xmlns="http://www.w3.org/2000/svg" xmlns:xlink="http://www.w3.org/1999/xlink" x="0px" y="0px"
	 viewBox="0 0 612 792" enable-background="new 0 0 612 792" xml:space="preserve">
<path fill="#2B2523" d="M387.6,422.2h-95.1c-7.5,0-13.6-6.1-13.6-13.6V259.1c0-7.5,6.1-13.6,13.6-13.6s13.6,6.1,13.6,13.6V395h81.6
	c7.5,0,13.6,6.1,13.6,13.6C401.1,416.1,395.1,422.2,387.6,422.2z"/>
<path fill="#2B2523" d="M306,639.7C171.1,639.7,61.3,529.9,61.3,395c0-134.9,109.7-244.7,244.7-244.7
	c134.9,0,244.7,109.7,244.7,244.7C550.7,529.9,440.9,639.7,306,639.7z M306,177.5c-119.9,0-217.5,97.6-217.5,217.5
	S186.1,612.5,306,612.5S523.5,514.9,523.5,395S425.9,177.5,306,177.5z"/>
</svg>
