<?xml version="1.0" encoding="utf-8"?>
<!-- Generator: Adobe Illustrator 18.0.0, SVG Export Plug-In . SVG Version: 6.00 Build 0)  -->
<!DOCTYPE svg PUBLIC "-//W3C//DTD SVG 1.1//EN" "http://www.w3.org/Graphics/SVG/1.1/DTD/svg11.dtd">
<svg version="1.1" id="图层_1" xmlns="http://www.w3.org/2000/svg" xmlns:xlink="http://www.w3.org/1999/xlink" x="0px" y="0px"
	 viewBox="0 0 612 792" enable-background="new 0 0 612 792" xml:space="preserve">
<g>
	<rect x="101.3" y="191.6" width="44.1" height="44.1"/>
	<rect x="466" y="191.6" width="44.1" height="44.1"/>
	<path d="M530.3,421.4v-76.4h-64.4v17.9H415v-17.9h-57.7V230.6h-38.1v-50.9h37.4v-45.8h-44.9l-0.9,22c0,1.6,0,4.3,0,5.9V172h-19.5
		v18.6h0.9v0.1h-37.4v44.9h37.4v19.5h38.1v89.1h-38.1v57.7h-31.3v-56.9h-84v37.4h-19.5v56.9h-31.3v-17.9H87.7v-50.1h37.4v-26.3H61.4
		v76.4H42.7v26.3h74.6h67v-76.4h50.9v56.9h77.2v15.3c0,7.7,0,14.5,0,22c0,0.9,0,0.9,0,1.6c0,0,0,0,0.9,0c5,0,9.3,0,13.6,0h12.7
		v-18.6h18.6v-44.9h-37.4v-50.1h49.2v18.6H427v50.9h-37.4v25.4h26.3V430h38.1v-56.9h50.1v107.7h-76.4c0,27.2,0,53.5,0,80.6v22h44.9
		V558h-17.9V508h95v-56.9l19.5-0.9v-28.8H530.3z"/>
	<path d="M483.8,294.1h84.8V133.9H407.5v160.3h0.9H483.8z M434.6,160.1h106.9v106.9h-0.1H434.6V160.1z"/>
	<path d="M311.6,635.3l0.9,22h25.4V631h-26.3C311.6,632.6,311.6,634.4,311.6,635.3z"/>
	<path d="M522,619.9h20.4c7.7,0,15.2,0,22.9,0c0.9,0,1.6,0,3.4,0v-64.4H522V619.9z"/>
	<polygon points="280.2,459.6 235.3,459.6 235.3,485.9 253.9,485.9 253.9,619.9 299.7,619.9 299.7,593.6 280.2,593.6 	"/>
	<path d="M132.6,497.8H43.6h-0.9v160.3h161.2V497.8c-0.9,0-1.6,0-1.6,0H132.6z M176.8,631.9H69.9V524.9h106.9V631.9z"/>
	<polygon points="472.8,613.1 446.5,613.1 446.5,658.1 510.1,658.1 510.1,631.9 472.8,631.9 	"/>
	<rect x="254.8" y="287.4" width="25.4" height="25.4"/>
	<path d="M203.1,294.2h0.9V133.9H42.7v160.4h84.9H203.1z M69.9,161h106.9v106.9H69.9V161z"/>
	<polygon points="376,498.6 350.6,498.6 350.6,536 331.1,536 331.1,562.3 369.3,562.3 369.3,619 394.8,619 394.8,536 376,536 	"/>
	<rect x="101.3" y="555.5" width="44.1" height="44.1"/>
</g>
</svg>
