<?xml version="1.0" encoding="utf-8"?>
<!-- Generator: Adobe Illustrator 18.0.0, SVG Export Plug-In . SVG Version: 6.00 Build 0)  -->
<!DOCTYPE svg PUBLIC "-//W3C//DTD SVG 1.1//EN" "http://www.w3.org/Graphics/SVG/1.1/DTD/svg11.dtd">
<svg version="1.1" id="图层_1" xmlns="http://www.w3.org/2000/svg" xmlns:xlink="http://www.w3.org/1999/xlink" x="0px" y="0px"
	 viewBox="0 0 612 792" enable-background="new 0 0 612 792" xml:space="preserve">
<path d="M521.4,588.2L500,606.6c-9.2,9.2-27.6,9.2-36.8-3.1L349.9,487.1c0,0-10.6-10.8-33.7-18.4c-64.3,30.6-140.9,18.4-189.9-30.6
	C65,376.8,71.2,278.8,138.5,220.7c67.4-58.2,168.4-55.1,226.6,6.1c49,49,55.1,119.4,21.4,177.6c8.8,22.9,21.4,33.7,21.4,33.7
	l110.3,113.3C530.6,563.7,530.6,579,521.4,588.2z M325.4,263.6c-39.8-39.8-104.1-42.9-147-3.1c-42.9,36.8-45.9,101.1-6.1,140.9
	s104.1,42.9,147,3.1S365.2,303.4,325.4,263.6z"/>
</svg>
