<?xml version="1.0" standalone="no"?>
<!DOCTYPE svg PUBLIC "-//W3C//DTD SVG 1.1//EN" "http://www.w3.org/Graphics/SVG/1.1/DTD/svg11.dtd" >
<svg xmlns="http://www.w3.org/2000/svg">
<metadata>Generated by IcoMoon</metadata>
<defs>
<font id="icomoon" horiz-adv-x="1024">
<font-face units-per-em="1024" ascent="960" descent="-64" />
<missing-glyph horiz-adv-x="1024" />
<glyph unicode="&#x20;" d="" horiz-adv-x="512" />
<glyph unicode="&#xe600;" d="M301.885 712.362h117.737v-298.358h-117.737v298.358zM570.443 413.883l-209.69-229.029-209.69 229.029z" horiz-adv-x="724" />
<glyph unicode="&#xe601;" d="M326.089 506.2h298.358v-117.737h-298.358v117.737zM326.089 237.642l-229.029 209.69 229.029 209.811z" horiz-adv-x="724" />
<glyph unicode="&#xe602;" d="M97.060 506.2h298.358v-117.737h-298.358v117.737zM395.418 657.142l229.029-209.811-229.029-209.69z" horiz-adv-x="724" />
<glyph unicode="&#xe603;" d="M301.885 481.995h117.737v-298.358h-117.737v298.358zM151.064 481.995l209.69 229.15 209.69-229.15z" horiz-adv-x="724" />
<glyph unicode="&#xe604;" d="M626.036 596.558l45.77-50.424-276.299-246.691-276.17 246.691 46.675 50.424 229.495-211.394 230.529 211.394z" horiz-adv-x="791" />
<glyph unicode="&#xe605;" d="M544.065 217.471l-50.424-45.77-246.691 276.299 246.691 276.17 50.424-46.675-211.394-229.495 211.394-230.529z" horiz-adv-x="791" />
<glyph unicode="&#xe606;" d="M247.079 678.4l50.424 45.77 246.691-276.299-246.82-276.17-50.424 46.675 211.394 229.495-211.265 230.529z" horiz-adv-x="791" />
<glyph unicode="&#xe607;" d="M165.107 299.442l-45.77 50.424 276.299 246.691 276.17-246.691-46.675-50.424-229.495 211.394-230.529-211.394z" horiz-adv-x="791" />
<glyph unicode="&#xe608;" d="M668.705 520.937c0 37.551 4.333 75.103 11.554 112.654-18.776 8.666-34.663 15.887-50.55 18.776s-34.663 5.777-56.327 5.777c-28.886 0-54.883-5.777-77.992-15.887-33.219-14.443-60.66-30.33-82.324-44.773-21.664-15.887-38.996-36.107-50.55-63.549s-18.776-59.216-18.776-95.323c0-41.884 7.221-76.547 23.109-106.877s37.551-53.439 67.882-69.326c28.886-15.887 64.993-23.109 105.433-23.109 21.664 0 41.884 2.889 62.104 7.221 20.22 5.777 40.44 12.999 59.216 23.109l17.331 27.441-11.554 10.11c-15.887-8.666-31.774-14.443-49.106-18.776-15.887-4.333-33.219-5.777-50.55-5.777-43.329 0-79.436 15.887-105.433 49.106-30.33 36.107-46.217 83.769-46.217 142.984 0 46.217 10.11 80.88 30.33 103.989s50.55 34.663 88.102 34.663c21.664 0 41.884-4.333 60.66-11.554s30.33-14.443 36.107-21.664c5.777-7.221 7.221-20.22 7.221-38.996v-21.664h30.33zM511.278 909.45c-254.195 0-462.172-206.533-462.172-462.172 0-254.195 206.533-462.172 462.172-462.172 254.195 0 462.172 206.533 462.172 462.172s-206.533 462.172-462.172 462.172zM511.278 32.767c-229.642 0-415.955 186.313-415.955 415.955s186.313 415.955 415.955 415.955 415.955-186.313 415.955-415.955-186.313-415.955-415.955-415.955z" />
<glyph unicode="&#xe609;" d="M570.494 481.941l28.886 80.88 80.88 28.886-80.88 28.886-28.886 80.88-28.886-80.88-80.88-28.886 80.88-28.886zM527.165 909.45c-254.195 8.666-467.949-190.646-476.615-444.841s190.646-469.394 444.841-478.059c255.639-8.666 469.394 190.646 478.059 446.285 8.666 254.195-190.646 467.949-446.285 476.615zM511.278 32.767c-229.642 0-415.955 186.313-415.955 415.955s186.313 415.955 415.955 415.955 415.955-186.313 415.955-415.955-186.313-415.955-415.955-415.955zM148.762 464.609c-7.221-202.2 151.65-371.182 353.85-378.403 89.546-2.889 173.315 25.997 238.307 77.992-15.887-1.444-31.774-1.444-47.661 0-270.082 8.666-482.392 235.419-473.726 506.945-41.884-59.216-67.882-129.986-70.77-206.533zM449.173 538.268l-31.774-11.554 31.774-11.554 11.554-33.219 11.554 33.219 33.219 11.554-33.219 11.554-11.554 33.219zM407.289 710.138l-17.331-46.217-46.217-17.331 46.217-17.331 17.331-46.217 15.887 46.217 46.217 17.331-46.217 17.331z" />
<glyph unicode="&#xe60a;" d="M709.145 328.846v0c-1.444-8.666-4.333-17.331-10.11-24.553-15.887-20.22-46.217-23.109-66.437-8.666-20.22 15.887-23.109 43.329-7.221 63.549 5.777 7.221 14.443 12.999 23.109 15.887l-90.99 69.326c-21.664-7.221-46.217-4.333-66.437 10.11-18.776 14.443-27.441 37.551-24.553 59.216l-72.214 54.883c-1.444-2.889-2.889-4.333-4.333-5.777-24.553-28.886-67.882-34.663-96.767-12.999-30.33 23.109-34.663 64.993-10.11 93.879 1.444 1.444 2.889 4.333 5.777 5.777l-60.66 46.217c-134.319-150.206-108.322-420.288 54.883-544.496 171.87-131.43 424.621-106.877 541.608 90.99l-115.543 86.657zM249.862 312.959c-30.33 23.109-34.663 64.993-10.11 93.879s67.882 34.663 96.767 11.554c30.33-23.109 34.663-64.993 10.11-93.879-23.109-28.886-66.437-33.219-96.767-11.554zM437.619 182.973c-15.887-20.22-46.217-23.109-66.437-8.666-20.22 15.887-23.109 43.329-7.221 63.549s46.217 23.109 64.993 8.666c21.664-14.443 24.553-43.329 8.666-63.549zM548.829 288.406c-24.553-28.886-67.882-34.663-96.767-12.999v0c-30.33 23.109-34.663 64.993-10.11 93.879s67.882 34.663 96.767 11.554c28.886-20.22 33.219-62.104 10.11-92.434zM684.592 177.196v0c-15.887-20.22-46.217-23.109-66.437-8.666-20.22 15.887-23.109 43.329-7.221 63.549s46.217 23.109 66.437 8.666c20.22-14.443 23.109-43.329 7.221-63.549zM511.278 909.45c-254.195 0-462.172-206.533-462.172-462.172 0-254.195 206.533-462.172 462.172-462.172 254.195 0 462.172 206.533 462.172 462.172s-206.533 462.172-462.172 462.172zM511.278 32.767c-229.642 0-415.955 186.313-415.955 415.955s186.313 415.955 415.955 415.955 415.955-186.313 415.955-415.955-186.313-415.955-415.955-415.955z" />
<glyph unicode="&#xe60b;" d="M512.022 909.481c-254.905 0-461.489-206.598-461.489-461.474 0-254.905 206.583-461.503 461.489-461.503 254.891 0 461.489 206.598 461.489 461.503-0.029 254.876-206.627 461.474-461.489 461.474zM149.244 488.020l-22.441 59.131c15.606 60.721 45.215 115.777 85.171 161.671l13.078-69.073 29.696 29.349 49.493-29.349-84.058-100.344h-37.932l-1.662-36.69 41.256-41.588 1.59-36.675-74.188 63.567zM345.423 267.796l-68.639-140.386c-8.786 6.43-17.196 13.265-25.433 20.404l6.691 134.678-21.43 41.574v85.691l19.797 24.392 102.222-68.481-13.208-97.873zM381.722 715.542l-61.024-36.661-37.932 88.061 28.019 22.022 93.957-9.754-23.020-63.669zM731.22 483.136l-29.681-7.37-13.135-41.603-13.208 22.022-19.812 44.059-23.077 9.783-8.222-36.646-23.135-14.739-49.42 58.726 34.594-75.894-18.092-100.257-31.3-134.577-26.401 14.682-23.092 183.491h-52.773l-11.546 80.734 34.638 66.082 79.174-7.384-3.324 24.45-42.874 34.276-37.961-31.776-11.488 22.008 29.667 41.574 70.923 39.132-46.198 39.161 56.082 21.994 49.449-14.696 150.833 44.738c44.955-34.045 82.497-77.411 109.693-127.294l-28.005-56.906h-29.71l8.251-58.712-34.638-29.32v-51.429l-14.797-9.754-31.415 51.443zM802.128 421.953l11.56-17.138-13.179-44.030-23.135 4.884 24.754 56.284zM835.639 217.104l-2.196 1.749-47.816-9.797v56.313l52.773 53.842 14.768-9.783 19.812 2.399 6.662-15.39c-11.604-28.222-26.459-54.81-44.002-79.333zM841.679 360.813l1.633 21.979 42.903-31.776-3.28-14.711-41.256 24.508z" />
<glyph unicode="&#xe60c;" d="M411.514 727.546l44.413-49.409-150.376-135.171-44.413 49.409 150.376 135.171zM611.455 727.046l150.397-135.151-44.407-49.416-150.397 135.151 44.407 49.416zM683.148 47.21v275.859h-343.74v-272.97c18.776-10.11 38.996-17.331 59.216-23.109v236.863h226.753v-239.752c20.22 5.777 38.996 14.443 57.772 23.109zM511.278 909.45c-254.195 0-462.172-206.533-462.172-462.172 0-254.195 206.533-462.172 462.172-462.172 254.195 0 462.172 206.533 462.172 462.172s-206.533 462.172-462.172 462.172zM511.278 32.767c-229.642 0-415.955 186.313-415.955 415.955s186.313 415.955 415.955 415.955 415.955-186.313 415.955-415.955-186.313-415.955-415.955-415.955z" />
<glyph unicode="&#xe60d;" d="M268.638 598.928c0 0 148.762-164.649 200.756-216.643 2.889-5.777 7.221-10.11 12.999-14.443 11.554-8.666 25.997-11.554 40.44-10.11s27.441 8.666 36.107 20.22c4.333 5.777 7.221 12.999 8.666 20.22 28.886 56.327 89.546 199.312 89.546 199.312s-93.879-75.103-148.762-121.32c-79.436 40.44-239.752 122.764-239.752 122.764zM511.278 909.45c-254.195 0-462.172-206.533-462.172-462.172 0-254.195 206.533-462.172 462.172-462.172 254.195 0 462.172 206.533 462.172 462.172s-206.533 462.172-462.172 462.172zM511.278 32.767c-229.642 0-415.955 186.313-415.955 415.955s186.313 415.955 415.955 415.955 415.955-186.313 415.955-415.955-186.313-415.955-415.955-415.955z" />
<glyph unicode="&#xe60e;" d="M934.454 627.814c-23.109 54.883-54.883 102.544-99.656 147.317-86.657 86.657-193.535 131.43-316.299 134.319h-7.221c-127.097 0-236.863-44.773-326.409-134.319-89.546-92.434-134.319-199.312-134.319-326.409s44.773-236.863 134.319-326.409c89.546-89.546 199.312-134.319 326.409-134.319s233.975 44.773 323.52 134.319c86.657 85.213 131.43 186.313 137.207 303.3v23.109c0 63.549-11.554 124.209-37.551 179.092zM816.023 731.803c0 0-174.759-131.43-174.759-134.319-18.776 17.331-51.994 38.996-77.992 40.44l-60.66 226.753c134.319 4.333 251.306-67.882 313.41-132.874zM671.594 425.614c-4.333-34.663-20.22-67.882-47.661-92.434-30.33-31.774-69.326-47.661-112.654-47.661-44.773 0-85.213 14.443-114.099 47.661-31.774 30.33-47.661 69.326-47.661 114.099 0 41.884 14.443 79.436 47.661 112.654 30.33 30.33 69.326 47.661 114.099 47.661h8.666c40.44 0 75.103-17.331 103.989-47.661 14.443-12.999 24.553-30.33 34.663-44.773 7.221-23.109 12.999-44.773 12.999-67.882 0 1.444 0-21.664 0-21.664zM683.148 549.822c-2.889 7.221-8.666 18.776-14.443 25.997l170.426 128.542c25.997-31.774 43.329-62.104 56.327-95.323l-212.31-59.216zM509.834 538.268c-24.553 0-47.661-10.11-64.993-27.441s-24.553-37.551-24.553-62.104c0-24.553 7.221-47.661 24.553-64.993s40.44-27.441 64.993-27.441c24.553 0 47.661 10.11 64.993 27.441s24.553 40.44 27.441 64.993c-2.889 24.553-10.11 44.773-27.441 62.104-18.776 17.331-40.44 27.441-64.993 27.441z" />
<glyph unicode="&#xe60f;" d="M667.261 187.306c82.324 49.106 131.43 129.986 144.429 218.087l-37.551 5.777c-10.11-76.547-54.883-147.317-125.653-190.646-53.439-31.774-114.099-43.329-170.426-34.663v0c-18.776 2.889-37.551 7.221-56.327 14.443 0 0 0 0 0 0-46.217 17.331-89.546 47.661-119.876 89.546l-28.886-23.109c36.107-47.661 83.769-82.324 137.207-101.1 80.88-33.219 176.203-27.441 257.083 21.664zM397.179 749.134c46.217 17.331 95.323 23.109 141.54 20.22l2.889 41.884c-53.439 4.333-108.322-2.889-160.316-23.109-83.769-31.774-150.206-92.434-189.202-164.649l36.107-20.22c36.107 63.549 93.879 116.987 168.982 145.873zM831.91 622.037l-37.551-20.22c8.666-15.887 15.887-33.219 21.664-50.55 56.327-168.982-34.663-350.962-203.645-407.289-15.887-5.777-31.774-8.666-47.661-11.554-28.886-4.333-57.772-5.777-88.102-2.889l-4.333-41.884c31.774-2.889 63.549-2.889 95.323 2.889v0c2.889 0 4.333 1.444 7.221 1.444 1.444 0 2.889 0 5.777 1.444v0c15.887 2.889 30.33 7.221 46.217 11.554 190.646 63.549 293.19 270.082 229.642 460.728-7.221 18.776-15.887 37.551-24.553 56.327zM924.344 656.7c-115.543 228.197-394.291 319.188-621.044 203.645s-317.743-394.291-203.645-621.044c115.543-226.753 394.291-317.743 621.044-203.645 226.753 115.543 317.743 394.291 203.645 621.044zM511.278 32.767c-229.642 0-415.955 186.313-415.955 415.955s186.313 415.955 415.955 415.955 415.955-186.313 415.955-415.955-186.313-415.955-415.955-415.955z" />
<glyph unicode="&#xe610;" d="M687.481 286.962c0 20.22 1.444 30.33 2.889 34.663 2.889 8.666 7.221 15.887 12.999 21.664 7.221 5.777 14.443 8.666 23.109 8.666 7.221 0 12.999-1.444 17.331-4.333s7.221-8.666 8.666-15.887c1.444-2.889 1.444-10.11 1.444-28.886v-70.77h31.774v75.103c0 18.776-1.444 33.219-5.777 41.884-4.333 10.11-10.11 17.331-20.22 23.109-17.331 11.554-41.884 11.554-60.66 1.444-4.333-2.889-8.666-4.333-11.554-8.666v12.999h-31.774v-145.873h31.774v54.883zM551.718 908.006c-254.195 23.109-478.059-166.093-499.724-420.288-23.109-252.75 166.093-478.059 420.288-499.724s478.059 166.093 499.724 420.288c21.664 254.195-166.093 478.059-420.288 499.724zM232.53 613.371l15.887 17.331 2.889-1.444c12.999-10.11 25.997-20.22 37.551-30.33l2.889-2.889-17.331-18.776-2.889 2.889c-15.887 14.443-27.441 24.553-36.107 30.33l-2.889 2.889zM268.638 470.386l-25.997 8.666 1.444 2.889c10.11 24.553 17.331 53.439 24.553 83.769l1.444 4.333 4.333-1.444c5.777-2.889 11.554-4.333 17.331-7.221l2.889-1.444-1.444-2.889c-7.221-27.441-15.887-56.327-23.109-83.769l-1.444-2.889zM280.192 492.051l4.333 1.444c28.886 12.999 51.994 28.886 72.214 47.661-21.664 30.33-36.107 67.882-40.44 111.21h-10.11l-17.331-18.776-2.889 2.889c-17.331 14.443-30.33 25.997-38.996 33.219l-4.333 1.444 14.443 17.331 2.889-1.444c15.887-11.554 30.33-21.664 41.884-30.33v21.664h135.763v-18.776c-5.777-44.773-21.664-83.769-49.106-116.987 17.331-17.331 40.44-33.219 67.882-43.329l4.333-1.444-2.889-4.333c-4.333-4.333-8.666-10.11-12.999-17.331l-1.444-2.889-2.889 1.444c-27.441 12.999-50.55 28.886-67.882 49.106-18.776-18.776-43.329-36.107-70.77-51.994l-4.333-2.889-1.444 2.889c-4.333 5.777-7.221 11.554-12.999 15.887l-2.889 4.333zM511.278 32.767c-80.88 0-154.539 23.109-218.087 62.104l439.063 706.257c116.987-73.659 196.423-203.645 196.423-352.406-1.444-229.642-187.757-415.955-417.399-415.955zM642.708 263.853h-83.769v54.883h83.769v31.774h-83.769v41.884h83.769v31.774h-116.987v-192.090h116.987zM410.178 652.367h-70.77c4.333-36.107 14.443-67.882 33.219-92.434 21.664 25.997 33.219 57.772 37.551 92.434z" />
<glyph unicode="&#xe611;" d="M585.525 665.9c-1.946 1.338-4.257 1.946-6.69 1.946-1.946 0-3.892-0.487-5.717-1.338l-211.271-105.575-211.271 105.696c-3.771 1.946-8.514 1.703-12.285-0.608-3.649-2.311-5.96-6.446-5.96-10.825v-336.184c0-4.622 2.797-9.122 7.055-11.312l216.987-108.372c0.122-0.122 0.365-0.122 0.487-0.243 0.243-0.122 0.365-0.122 0.608-0.243 0.122 0 0.243-0.122 0.365-0.122 0.365-0.122 0.851-0.243 1.216-0.365 0 0 0 0 0.122 0 0.487-0.122 0.851-0.122 1.338-0.243 0 0 0.122 0 0.122 0 0.487 0 0.973-0.122 1.338-0.122 0.487 0 0.973 0 1.338 0.122 0.243 0 0.608 0.122 0.851 0.122 0.122 0 0.365 0 0.487 0.122 0.365 0.122 0.608 0.122 0.851 0.243 0.122 0 0.243 0.122 0.365 0.122 0.243 0.122 0.487 0.122 0.73 0.243 0.487 0.243 1.095 0.487 1.581 0.73l216.136 108.007c4.379 2.068 7.055 6.446 7.055 11.312v336.063c0.122 4.5-2.068 8.514-5.838 10.825zM374.619 539.040l191.567 95.723v-307.845l-191.567-95.844v307.966zM349.32 231.074l-191.688 95.844v307.845l191.688-95.723v-307.966zM182.809 676.481l173.566-86.722c1.824-0.851 3.771-1.338 5.717-1.338 2.068 0 4.014 0.487 5.717 1.338l173.444 86.722c6.325 3.162 8.879 10.703 5.717 17.028-2.189 4.379-6.568 7.055-11.312 7.055-1.946 0-3.892-0.487-5.717-1.338l-167.849-83.924-167.849 83.924c-1.703 0.851-3.649 1.216-5.595 1.216-4.865 0-9.244-2.676-11.433-7.055-3.162-6.325-0.608-13.744 5.595-16.907z" horiz-adv-x="724" />
<glyph unicode="&#xe612;" d="M460.003 419.843h-102.777c-8.149 0-14.717 6.568-14.717 14.717v161.524c0 8.149 6.568 14.717 14.717 14.717s14.717-6.568 14.717-14.717v-146.929h88.181c8.149 0 14.717-6.568 14.717-14.717-0.243-8.028-6.811-14.596-14.839-14.596zM361.97 184.733c-145.834 0-264.544 118.711-264.544 264.544s118.589 264.544 264.544 264.544c145.834 0 264.544-118.589 264.544-264.544s-118.711-264.544-264.544-264.544zM361.97 684.266c-129.657 0-235.11-105.453-235.11-235.11s105.453-235.11 235.11-235.11 235.11 105.575 235.11 235.11-105.453 235.11-235.11 235.11z" horiz-adv-x="724" />
<glyph unicode="&#xe613;" d="M84.776 650.209h554.51v-48.652h-554.51v48.652zM84.776 472.265h554.51v-48.652h-554.51v48.652zM84.776 294.443h554.51v-48.652h-554.51v48.652z" horiz-adv-x="724" />
<glyph unicode="&#xe614;" d="M130.974 712.275h57.018v-57.018h-57.018v57.018zM602.505 712.275h57.018v-57.018h-57.018v57.018zM685.64 415.16v98.78h-83.265v-23.143h-65.81v23.143h-74.602v147.911h-49.261v65.81h48.356v59.216h-58.053l-1.164-28.444c0-2.069 0-5.56 0-7.628v-13.188h-25.212v-24.048h1.164v-0.129h-48.356v-58.053h48.356v-25.212h49.261v-115.2h-49.261v-74.602h-40.469v73.568h-108.606v-48.356h-25.212v-73.568h-40.469v23.143h-49.648v64.776h48.356v34.004h-82.36v-98.78h-24.178v-34.004h183.079v98.78h65.81v-73.568h99.814v-19.782c0-9.956 0-18.747 0-28.444 0-1.164 0-1.164 0-2.069 0 0 0 0 1.164 0 6.465 0 12.024 0 17.584 0h16.42v24.048h24.048v58.053h-48.356v64.776h63.612v-24.048h73.697v-65.81h-48.356v-32.84h34.004v23.79h49.261v73.568h64.776v-139.248h-98.78c0-35.168 0-69.172 0-104.21v-28.444h58.053v32.84h-23.143v64.646h122.828v73.568l25.212 1.164v37.236h-50.295zM625.519 579.749h109.64v207.127h-208.291v-207.257h98.651zM561.907 753.002h138.214v-138.214h-138.214v138.214zM402.877 138.602l1.164-28.444h32.84v34.004h-34.004c0-2.069 0-4.396 0-5.56zM674.909 158.513h26.376c9.956 0 19.653 0 29.608 0 1.164 0 2.069 0 4.396 0v83.265h-60.38v-83.265zM362.279 365.77h-58.053v-34.004h24.048v-173.253h59.216v34.004h-25.212zM171.442 316.38h-116.234v-207.257h208.42v207.257c-1.164 0-2.069 0-2.069 0h-90.117zM228.59 142.998h-138.214v138.343h138.214v-138.343zM611.297 167.305h-34.004v-58.182h82.23v33.875h-48.226zM329.438 588.412h32.84v-32.84h-32.84v32.84zM262.594 579.62h1.164v207.257h-208.549v-207.386h207.386zM90.376 751.838h138.214v-138.214h-138.214v138.214zM486.141 315.345h-32.84v-48.356h-25.212v-34.004h49.39v-73.309h32.97v107.313h-24.307zM130.974 241.778h57.018v-57.018h-57.018v57.018z" horiz-adv-x="791" />
<glyph unicode="&#xe615;" d="M287.654 321.444c-97.304 0-176.363 79.059-176.363 176.363s79.059 176.363 176.363 176.363 176.363-79.059 176.363-176.363-79.181-176.363-176.363-176.363zM287.654 625.518c-70.424 0-127.711-57.288-127.711-127.711s57.288-127.711 127.711-127.711 127.711 57.288 127.711 127.711c0 70.424-57.288 127.711-127.711 127.711zM419.933 418.932l184.13-154.094-31.225-37.311-184.13 154.094 31.225 37.311z" horiz-adv-x="724" />
</font>
</defs>
</svg>
