<?xml version="1.0" standalone="no"?>
<!DOCTYPE svg PUBLIC "-//W3C//DTD SVG 1.1//EN" "http://www.w3.org/Graphics/SVG/1.1/DTD/svg11.dtd" >
<svg xmlns="http://www.w3.org/2000/svg">
<metadata>Generated by IcoMoon</metadata>
<defs>
<font id="icomoon" horiz-adv-x="512">
<font-face units-per-em="512" ascent="480" descent="-32" />
<missing-glyph horiz-adv-x="512" />
<glyph unicode="&#x20;" d="" horiz-adv-x="256" />
<glyph unicode="&#xe600;" d="M67.233 228.202c37.495-44.736 68.978-81.713 119.337-143.256 5.237-6.464 9.050-5.495 10.408-4.849-0.323 0.194-0.582 0.323-0.582 0.323h1.228c0 0-0.323-0.194-0.647-0.323 1.228-0.582 4.655-1.293 9.956 4.849 42.149 48.356 81.713 95.806 121.341 143.256 15.257 18.295-12.024 17.326-15.127 17.326-17.971 0-45.511 0-70.012 0v105.697c0 8.274-8.727 17.196-17.131 17.196h-56.631c-9.244 0-16.291-7.24-16.291-18.231v-104.598c-21.915 0-49.584 0-69.818 0-3.038-0.065-31.289 0.84-16.032-17.39z" horiz-adv-x="396" />
<glyph unicode="&#xe601;" d="M202.020 354.586c-44.736-37.495-81.713-68.978-143.256-119.338-6.465-5.237-5.495-9.050-4.849-10.408 0.194 0.323 0.323 0.582 0.323 0.582v-1.228c0 0-0.194 0.323-0.323 0.647-0.582-1.229-1.293-4.655 4.849-9.956 48.356-42.149 95.806-81.713 143.256-121.341 18.295-15.257 17.326 12.024 17.326 15.127 0 17.971 0 45.511 0 70.012h105.697c8.274 0 17.196 8.728 17.196 17.132v56.63c0 9.244-7.24 16.291-18.231 16.291h-104.598c0 21.915 0 49.584 0 69.818-0.065 3.038 0.84 31.289-17.39 16.033z" horiz-adv-x="396" />
<glyph unicode="&#xe602;" d="M193.681 93.479c44.736 37.495 81.713 68.978 143.256 119.338 6.464 5.236 5.495 9.050 4.849 10.408-0.194-0.323-0.323-0.582-0.323-0.582v1.228c0 0 0.194-0.323 0.323-0.647 0.582 1.228 1.293 4.655-4.849 9.956-48.356 42.15-95.806 81.713-143.256 121.342-18.295 15.256-17.326-12.024-17.326-15.128 0-17.971 0-45.511 0-70.012h-105.697c-8.275 0-17.196-8.728-17.196-17.132v-56.63c0-9.245 7.24-16.291 18.231-16.291h104.598c0-21.915 0-49.584 0-69.818 0.065-3.038-0.84-31.289 17.39-16.033z" horiz-adv-x="396" />
<glyph unicode="&#xe603;" d="M328.404 219.863c-37.495 44.736-68.978 81.713-119.338 143.257-5.237 6.464-9.050 5.495-10.408 4.848 0.323-0.194 0.582-0.323 0.582-0.323h-1.228c0 0 0.323 0.194 0.647 0.323-1.228 0.582-4.655 1.293-9.956-4.848-42.15-48.356-81.713-95.806-121.341-143.257-15.257-18.295 12.024-17.325 15.127-17.325 17.971 0 45.511 0 70.012 0v-105.697c0-8.274 8.727-17.196 17.131-17.196h56.63c9.244 0 16.291 7.24 16.291 18.231v104.598c21.915 0 49.584 0 69.818 0 3.038 0.065 31.289-0.841 16.033 17.39z" horiz-adv-x="396" />
<glyph unicode="&#xe604;" d="M313.018 298.279l22.885-25.212-138.149-123.346-138.085 123.346 23.338 25.212 114.748-105.697 115.264 105.697z" horiz-adv-x="396" />
<glyph unicode="&#xe605;" d="M272.033 108.736l-25.212-22.885-123.346 138.149 123.346 138.085 25.212-23.338-105.697-114.748 105.697-115.264z" horiz-adv-x="396" />
<glyph unicode="&#xe606;" d="M123.54 339.2l25.212 22.885 123.345-138.149-123.41-138.085-25.212 23.337 105.697 114.748-105.632 115.264z" horiz-adv-x="396" />
<glyph unicode="&#xe607;" d="M82.553 149.721l-22.885 25.212 138.149 123.346 138.085-123.346-23.337-25.212-114.748 105.697-115.264-105.697z" horiz-adv-x="396" />
<glyph unicode="&#xe608;" d="M24.977 224.004c0-127.388 103.638-231.055 231.041-231.055 127.38 0 231.041 103.668 231.041 231.055 0 127.395-103.66 231.055-231.041 231.055-127.416-0.014-231.041-103.668-231.041-231.055zM61.862 224.004c0 107.042 87.1 194.134 194.149 194.134 107.034 0 194.156-87.093 194.156-194.134 0-107.049-87.121-194.148-194.156-194.148-107.048 0-194.149 87.078-194.149 194.149zM334.39 153.587l5.729-5.094-8.707-13.598c-9.624-5.26-19.529-9.183-29.731-11.799-10.188-2.601-20.606-3.923-31.228-3.923-20.809 0-38.481 3.966-52.983 11.892-14.516 7.926-25.744 19.407-33.655 34.406-7.941 15.007-11.893 32.853-11.893 53.524 0 18.266 3.042 34.161 9.147 47.687 6.083 13.518 14.609 24.103 25.584 31.762 10.982 7.644 24.681 15.152 41.097 22.514 11.618 5.239 24.566 7.854 38.857 7.854 10.932 0 20.317-0.889 28.149-2.666 7.861-1.777 16.315-4.95 25.382-9.487-3.541-18.75-5.455-37.484-5.729-56.248h-13.396v10.636c0 9.060-1.315 15.469-3.938 19.226-2.623 3.75-8.591 7.457-17.947 11.149-9.342 3.678-19.522 5.52-30.57 5.52-19.111 0-33.843-5.838-44.182-17.5-10.332-11.668-15.506-29.096-15.506-52.289 0-29.848 7.659-53.741 22.947-71.703 13.728-16.271 31.444-24.399 53.105-24.399 8.497 0 16.849 1.055 25.064 3.179 8.208 2.132 16.329 5.245 24.399 9.356z" />
<glyph unicode="&#xe609;" d="M264.009 454.899c-127.33 4.4-234.508-95.589-238.909-222.912-4.393-127.316 95.604-234.494 222.934-238.88 127.316-4.393 234.48 95.589 238.887 222.927 4.408 127.301-95.596 234.466-222.912 238.865zM262.731 418.029c106.983-3.7 191.005-93.747 187.313-200.731-3.707-106.983-93.755-191.020-200.738-187.335-107.012 3.714-191.035 93.783-187.335 200.752 3.707 106.983 93.747 191.006 200.76 187.314zM363.746 86.848c-7.464-0.455-15.029-0.592-22.666-0.339-128.819 4.458-229.631 112.432-225.304 241.214-20.31-27.405-32.824-61.017-34.103-97.692-3.331-96.283 72.021-177.017 168.297-180.349 42.817-1.481 82.541 12.615 113.776 37.166zM270.945 310.164l-40.245-14.428 40.245-14.422 14.428-40.251 14.421 40.251 40.237 14.422-40.237 14.428-14.421 40.216-14.428-40.216zM224.849 269.168l-16.373-5.867 16.358-5.874 5.867-16.373 5.874 16.373 16.358 5.874-16.358 5.867-5.874 16.373-5.852-16.373zM195.21 331.536l-23.222-8.324 23.222-8.323 8.316-23.222 8.323 23.222 23.215 8.323-23.214 8.324-8.323 23.214-8.316-23.214z" />
<glyph unicode="&#xe60a;" d="M24.977 223.772c0-127.395 103.638-231.055 231.041-231.055 127.38 0 231.041 103.668 231.041 231.055 0 127.38-103.66 231.041-231.041 231.041-127.416-0.007-231.041-103.66-231.041-231.041zM61.862 223.772c0 107.027 87.1 194.134 194.149 194.134 107.034 0 194.156-87.114 194.156-194.134 0-107.063-87.121-194.163-194.156-194.163-107.048 0-194.149 87.1-194.149 194.163zM341.659 169.714c-0.31-3.966-1.821-7.904-4.574-11.25-7.211-8.887-20.433-10.541-29.363-3.743-8.959 6.828-10.39 19.674-3.135 28.503 2.738 3.418 6.351 5.744 10.274 6.944l-40.461 30.866c-9.725-3.49-20.953-2.218-29.508 4.335-8.577 6.539-12.47 16.784-11.243 26.748l-32.080 24.508c-0.657-0.99-1.358-1.958-2.146-2.883-10.694-13.121-30.202-15.577-43.445-5.513-13.266 10.115-15.325 29.053-4.667 42.173 0.773 0.946 1.611 1.857 2.471 2.673l-27.094 20.642c-60.215-67.303-48.438-187.573 24.226-243.345 77.1-58.849 189.799-47.498 242.182 40.404l-51.437 38.937zM136.441 162.741c-13.244 10.087-15.31 29.031-4.631 42.137 10.686 13.099 30.223 15.577 43.459 5.476 13.251-10.087 15.339-29.031 4.653-42.166-10.715-13.099-30.238-15.534-43.482-5.448zM219.899 104.73c-7.225-8.88-20.418-10.512-29.363-3.714-8.952 6.842-10.39 19.674-3.121 28.503 7.196 8.88 20.404 10.541 29.356 3.728 8.974-6.842 10.382-19.674 3.129-28.518zM226.351 146.397c-13.251 10.087-15.317 29.031-4.631 42.152 10.686 13.106 30.202 15.563 43.453 5.476s15.325-29.046 4.661-42.137c-10.708-13.121-30.216-15.577-43.452-5.491h-0.029zM330.293 102.302c-7.211-8.88-20.425-10.556-29.37-3.7-8.952 6.813-10.39 19.646-3.143 28.503 7.254 8.88 20.433 10.527 29.406 3.7 8.938-6.842 10.382-19.674 3.122-28.503h-0.014z" />
<glyph unicode="&#xe60b;" d="M256.011 454.74c-127.452 0-230.744-103.299-230.744-230.737 0-127.453 103.292-230.751 230.744-230.751 127.445 0 230.744 103.299 230.744 230.751-0.014 127.438-103.313 230.737-230.745 230.737zM74.622 244.010l-11.221 29.565c7.803 30.361 22.608 57.888 42.585 80.835l6.539-34.536 14.848 14.674 24.746-14.674-42.029-50.172h-18.966l-0.831-18.345 20.628-20.794 0.795-18.337-37.094 31.784zM172.712 133.898l-34.32-70.193c-4.393 3.215-8.598 6.632-12.716 10.202l3.345 67.339-10.715 20.787v42.846l9.899 12.196 51.111-34.24-6.604-48.937zM190.861 357.771l-30.512-18.331-18.966 44.031 14.010 11.011 46.978-4.877-11.51-31.835zM365.61 241.568l-14.841-3.685-6.567-20.802-6.604 11.011-9.906 22.030-11.538 4.892-4.111-18.323-11.567-7.369-24.71 29.363 17.297-37.947-9.046-50.128-15.65-67.288-13.201 7.341-11.546 91.745h-26.387l-5.773 40.367 17.319 33.041 39.587-3.692-1.662 12.225-21.437 17.138-18.981-15.888-5.744 11.004 14.833 20.787 35.462 19.566-23.099 19.58 28.041 10.997 24.724-7.348 75.416 22.369c22.478-17.022 41.248-38.705 54.846-63.647l-14.002-28.453h-14.855l4.125-29.356-17.319-14.66v-25.715l-7.399-4.877-15.707 25.721zM401.064 210.976l5.78-8.569-6.589-22.015-11.567 2.442 12.377 28.142zM417.82 108.552l-1.098 0.875-23.908-4.899v28.156l26.387 26.921 7.384-4.892 9.906 1.2 3.331-7.695c-5.802-14.111-13.229-27.405-22.001-39.666zM420.839 180.406l0.817 10.99 21.452-15.888-1.64-7.356-20.628 12.254z" />
<glyph unicode="&#xe60c;" d="M256.018 455.051c-127.395 0-231.041-103.66-231.041-231.040 0-127.395 103.645-231.055 231.041-231.055s231.048 103.66 231.048 231.055c0 127.38-103.653 231.041-231.048 231.041zM312.62 38.294c-17.918-5.476-36.921-8.447-56.603-8.447-19.869 0-39.053 3.013-57.115 8.584v93.198h113.725v-93.335zM342.041 50.028v81.601h0.007v29.428h-172.589v-110.777c-63.719 31.885-107.591 97.75-107.591 173.73 0 107.034 87.1 194.127 194.142 194.127 107.027 0 194.156-87.093 194.156-194.127 0-76.168-44.132-142.207-108.125-173.983zM152.763 271.029l-22.199 24.696 75.458 67.828 22.199-24.696-75.459-67.828zM358.83 271.046l-75.469 67.819 22.21 24.715 75.469-67.819-22.21-24.715z" />
<glyph unicode="&#xe60d;" d="M24.971 224.004c0-127.402 103.653-231.055 231.048-231.055s231.048 103.653 231.048 231.055c0 127.395-103.653 231.055-231.048 231.055s-231.048-103.668-231.048-231.055zM61.862 224.004c0 107.049 87.093 194.141 194.142 194.141 107.034 0 194.149-87.092 194.149-194.141s-87.115-194.148-194.149-194.148c-107.048 0-194.142 87.092-194.142 194.149zM283.813 198.527c-0.817-3.526-2.334-6.944-4.675-10.007-4.538-5.954-11.113-9.385-18.005-10.151-6.857-1.077-14.118 0.491-20.050 5.043-2.724 2.074-4.892 4.61-6.553 7.377-25.989 26.068-100.495 108.522-100.495 108.522s80.756-40.829 120.025-62.173c27.189 23.439 74.441 60.764 74.441 60.764s-30.288-71.219-44.688-99.375z" />
<glyph unicode="&#xe60e;" d="M467.76 313.668c-11.221 27.405-27.405 51.060-49.825 73.488-43.575 43.582-97.135 66.017-158.181 67.267h-3.743c-63.517 0-118.32-22.427-163.16-67.274-44.833-46.083-67.26-99.636-67.26-163.153 0-63.524 22.427-118.327 67.26-163.167 44.84-44.847 99.643-67.26 163.16-67.26 63.531 0 117.091 22.413 161.917 67.26 43.589 42.347 66.024 93.414 68.495 151.939v11.221c0.022 32.384-6.207 62.281-18.663 89.68zM369.36 403.341c16.199-9.964 29.905-21.177 42.347-34.876l-85.959-64.76c-1.243 0-1.243 0-1.243-1.25-2.493 2.5-6.199 4.978-9.964 7.478-9.971 4.971-21.177 7.464-32.361 7.464 0 0 0 0 0 1.25l-27.412 103.378c39.869 8.714 77.223 2.507 114.592-18.685zM335.741 212.783c-2.5-17.427-9.978-33.626-23.67-46.075-14.928-16.199-34.869-23.656-56.038-23.656-22.42 0-42.347 7.457-57.303 23.656-16.199 14.928-23.655 34.869-23.655 57.296 0 21.177 7.457 39.861 23.655 56.060 14.935 14.913 34.883 23.641 57.303 23.641h3.728c19.942 0 37.383-8.728 52.31-23.641 7.478-6.236 12.464-14.956 17.442-22.427 3.743-11.207 6.228-22.42 6.228-33.612v-11.243zM341.969 275.057c-1.257 4.992-3.757 9.971-6.221 13.699h1.243l85.951 66.017c9.964-16.191 17.427-32.383 23.641-51.060l-104.614-28.655zM254.775 268.829c-12.457 0-23.655-4.971-32.376-13.699s-12.47-18.685-12.47-31.148c0-12.471 3.75-23.656 12.47-32.376s19.941-13.699 32.376-13.699c12.456 0 23.655 4.978 32.376 13.699s12.449 19.927 13.699 32.376c-1.257 12.464-4.971 22.427-13.699 31.148-8.714 8.721-19.92 13.699-32.376 13.699z" />
<glyph unicode="&#xe60f;" d="M462.067 328.495c-57.606 113.616-196.938 159.186-310.546 101.572-113.617-57.614-159.179-196.938-101.572-310.539 57.621-113.638 196.938-159.186 310.546-101.601 113.624 57.629 159.201 196.945 101.572 310.568zM343.819 50.837c-95.495-48.394-212.551-10.101-260.967 85.366-48.401 95.466-10.115 212.536 85.351 260.945 95.466 48.401 212.551 10.115 260.967-85.351 48.43-95.481 10.101-212.544-85.351-260.96zM333.769 93.444c40.88 24.435 65.952 65.149 72.050 108.891l-18.497 2.558c-5.339-38.351-27.297-74.008-63.112-95.43-26.755-15.99-56.884-21.416-85.546-17.521l0.014 0.007c-9.537 1.293-18.894 3.613-27.94 6.914-0.007 0.007-0.014 0.007-0.029 0.014-23.431 8.569-44.55 23.793-60.316 44.89l-14.581-11.647c17.947-23.829 41.892-41.061 68.459-50.75 41.306-15.137 88.813-12.254 129.498 12.074zM198.418 374.462c23.46 8.93 47.694 11.85 71.132 9.805l1.807 20.996c-26.473 2.276-53.864-1.2-80.366-11.293-42.094-16.040-74.796-46.032-94.853-82.686l18.367-10.065c17.759 32.455 46.632 59.045 83.914 73.242zM415.977 310.786l-18.36-9.949c4.32-7.999 8.063-16.423 11.055-25.353 28.308-84.412-17.175-175.782-101.594-204.090-8.013-2.688-16.105-4.494-24.19-5.874-14.363-2.471-29.089-2.912-43.799-1.43l-2.161-20.801c15.931-1.618 31.921-1.185 47.542 1.322l0.029-0.166c1.185 0.188 2.385 0.498 3.598 0.729 0.831 0.151 1.683 0.217 2.55 0.39l-0.029 0.13c7.709 1.495 15.426 3.374 23.063 5.925 95.344 31.986 146.744 135.198 114.743 230.542-3.338 10.058-7.579 19.588-12.449 28.627z" />
<glyph unicode="&#xe610;" d="M205.47 326.276h-35.548c1.907-18.149 7.486-33.756 16.625-46.429 10.441 13.201 16.813 28.8 18.923 46.429zM275.996 454.177c-126.925 11.011-239.125-83.285-250.159-210.189-11.025-126.911 83.285-239.14 210.196-250.166 126.903-11.004 239.14 83.27 250.159 210.21 11.019 126.904-83.285 239.125-210.196 250.144zM116.239 306.537l7.832 8.901 1.329-0.968c6.705-4.884 13.121-9.899 19.103-14.913l1.401-1.192-8.547-9.602-1.337 1.214c-7.789 6.987-13.916 12.168-18.215 15.389l-1.568 1.171zM134.274 235.275l-13.041 4.653 0.65 1.72c4.74 12.579 8.945 26.646 12.478 41.784l0.506 2.167 2.016-0.932c2.724-1.272 5.621-2.385 8.598-3.302l1.669-0.52-0.463-1.669c-3.93-14.038-7.897-28.063-11.893-42.022l-0.52-1.879zM148.926 234.603l-0.888 1.358c-1.821 2.825-3.923 5.426-6.221 7.796l-1.77 1.835 2.305 1.062c14.298 6.64 26.343 14.638 35.801 23.872-11.048 15.26-17.796 33.995-20.036 55.728h-5.166l0.087-0.072-8.678-9.595-1.344 1.163c-8.439 7.356-15.115 12.811-19.84 16.264l-1.568 1.142 7.551 8.966 1.358-0.961c7.919-5.571 14.899-10.78 20.722-15.506v10.512h67.563v-9.226c-2.869-22.442-11.054-42.022-24.32-58.445 8.894-9.024 20.303-16.409 33.886-21.935l2.341-0.953-1.662-1.907c-1.922-2.24-4.155-5.108-6.647-8.591l-0.888-1.243-1.365 0.665c-13.511 6.531-24.985 14.783-34.124 24.537-9.754-9.739-21.719-18.359-35.62-25.736l-1.474-0.73zM449.43 207.219c-9.255-106.644-103.551-185.897-210.203-176.649-31.458 2.738-60.496 12.911-85.626 28.575l204.813 329.693c60.056-37.427 97.533-106.428 91.016-181.62zM263.294 115.567h57.903v15.946h-41.784v27.76h41.784v15.946h-41.784v20.671h42.123v15.931h-58.243v-96.254zM380.183 185.999c-8.649 5.672-20.844 5.672-30.267 0.534-2.045-1.098-4.039-2.486-5.91-4.104v6.221h-15.707v-73.083h15.707v27.76c0 10.397 0.592 15.014 1.084 17.015 1.113 4.292 3.346 7.803 6.842 10.722 3.418 2.854 7.153 4.234 11.459 4.234 3.671 0 6.502-0.817 8.649-2.529 2.132-1.676 3.57-4.248 4.385-7.875 0.383-1.553 0.809-5.267 0.809-14.306v-35.043h15.729v37.499c0.014 9.544-0.997 16.495-3.005 21.228-2.081 4.906-5.368 8.829-9.776 11.726z" />
<glyph unicode="&#xe611;" d="M197.818 69.624c-1.035 0-2.069 0.259-3.038 0.711l-134.788 67.361c-2.263 1.163-3.749 3.491-3.749 6.012v209.002c0 2.327 1.228 4.525 3.167 5.754 2.004 1.228 4.461 1.357 6.53 0.323l131.879-65.94 131.814 65.875c2.068 1.034 4.59 0.969 6.529-0.323 2.004-1.228 3.168-3.426 3.168-5.753v-209.002c0-2.586-1.422-4.913-3.75-6.012l-134.723-67.297c-0.97-0.517-2.004-0.711-3.038-0.711zM69.754 147.911l128.065-64.065 128.065 64.065v193.94l-125.091-62.513c-1.875-0.969-4.137-0.969-6.012 0l-125.091 62.513v-193.94zM197.818 312.307c-1.035 0-2.069 0.258-3.038 0.711l-107.831 53.915c-3.362 1.681-4.654 5.689-3.038 9.050 1.681 3.297 5.689 4.654 9.050 3.038l104.856-52.428 104.856 52.428c3.361 1.681 7.37 0.323 9.050-3.038s0.323-7.369-3.038-9.050l-107.831-53.915c-0.97-0.517-2.004-0.711-3.038-0.711zM197.818 69.624c-3.75 0-6.723 3.038-6.723 6.723v209.002c0 3.75 3.038 6.723 6.723 6.723 3.75 0 6.723-3.038 6.723-6.723v-209.002c0-3.75-2.974-6.723-6.723-6.723z" horiz-adv-x="396" />
<glyph unicode="&#xe612;" d="M250.57 207.063h-61.479c-4.849 0-8.792 3.943-8.792 8.792v96.647c0 4.849 3.944 8.792 8.792 8.792s8.792-3.944 8.792-8.792v-87.855h52.751c4.849 0 8.792-3.944 8.792-8.792-0.13-4.849-4.008-8.792-8.857-8.792zM197.818 66.457c-87.208 0-158.19 70.982-158.19 158.19s70.917 158.19 158.19 158.19c87.208 0 158.19-70.917 158.19-158.19 0-87.208-70.982-158.19-158.19-158.19zM197.818 365.252c-77.511 0-140.606-63.095-140.606-140.606s63.095-140.606 140.606-140.606 140.606 63.095 140.606 140.606-63.095 140.606-140.606 140.606z" horiz-adv-x="396" />
<glyph unicode="&#xe613;" d="M67.944 367.774c0.969 0 262.142 0 262.659 0 10.538-1.422 18.748-12.477 18.748-26.441 0-13.446-8.146-24.501-18.231-26.44-0.969 0-262.659-0.452-263.628-0.452-11.507 0-21.139 11.507-21.139 26.893 0 14.934 9.568 26.441 21.592 26.441zM67.944 250.635c0.969 0 262.142 0 262.659 0 10.538-1.422 18.748-12.477 18.748-26.893 0-13.447-8.146-24.501-18.231-26.44-0.969 0.452-262.659 0-263.628 0-11.507 0-21.139 11.507-21.139 26.893 0 14.416 9.568 26.441 21.592 26.441zM67.944 133.43c0.969 0 262.142 0 262.659 0 10.538-1.422 18.748-12.477 18.748-26.893 0-13.447-8.146-24.501-18.231-26.44-0.452-0.452-262.142-0.452-263.111-0.452-12.024 0.452-21.139 12.024-21.139 27.346-0.517 14.481 9.050 26.44 21.075 26.44z" horiz-adv-x="396" />
<glyph unicode="&#xe614;" d="M65.487 356.137h28.509v-28.509h-28.509v28.509zM301.252 356.137h28.509v-28.509h-28.509v28.509zM342.82 207.58v49.39h-41.632v-11.572h-32.905v11.572h-37.301v73.955h-24.631v32.905h24.178v29.608h-29.026l-0.582-14.222c0-1.034 0-2.78 0-3.814v-6.594h-12.606v-12.024h0.582v-0.065h-24.178v-29.026h24.178v-12.606h24.631v-57.6h-24.631v-37.301h-20.234v36.784h-54.303v-24.178h-12.606v-36.784h-20.234v11.572h-24.824v32.388h24.178v17.002h-41.18v-49.39h-12.089v-17.002h91.54v49.39h32.905v-36.784h49.907v-9.891c0-4.978 0-9.373 0-14.222 0-0.582 0-0.582 0-1.034 0 0 0 0 0.582 0 3.232 0 6.012 0 8.792 0h8.21v12.024h12.024v29.026h-24.178v32.388h31.806v-12.024h36.849v-32.905h-24.178v-16.42h17.002v11.895h24.63v36.784h32.388v-69.624h-49.39c0-17.584 0-34.586 0-52.105v-14.222h29.026v16.42h-11.572v32.323h61.414v36.784l12.606 0.582v18.618h-25.147zM312.76 289.875h54.82v103.563h-104.146v-103.628h49.325zM280.954 376.501h69.107v-69.107h-69.107v69.107zM201.439 69.301l0.582-14.222h16.42v17.002h-17.002c0-1.034 0-2.198 0-2.78zM337.454 79.257h13.188c4.978 0 9.827 0 14.804 0 0.582 0 1.034 0 2.198 0v41.632h-30.19v-41.632zM181.139 182.885h-29.026v-17.002h12.024v-86.627h29.608v17.002h-12.606zM85.721 158.19h-58.117v-103.628h104.21v103.629c-0.582 0-1.035 0-1.035 0h-45.059zM114.295 71.499h-69.107v69.171h69.107v-69.171zM305.649 83.652h-17.002v-29.091h41.115v16.938h-24.113zM164.719 294.206h16.42v-16.42h-16.42v16.42zM131.297 289.81h0.582v103.628h-104.275v-103.693h103.693zM45.188 375.919h69.107v-69.107h-69.107v69.107zM243.071 157.673h-16.42v-24.178h-12.606v-17.002h24.695v-36.654h16.485v53.656h-12.154zM65.487 120.889h28.509v-28.509h-28.509v28.509z" horiz-adv-x="396" />
<glyph unicode="&#xe615;" d="M337.067 99.75l-13.834-11.895c-5.947-5.947-17.843-5.947-23.79 2.004l-73.245 75.249c0 0-6.852 6.982-21.786 11.895-41.567-19.782-91.087-11.895-122.763 19.782-39.629 39.629-35.62 102.982 7.887 140.541 43.571 37.624 108.864 35.62 146.489-3.943 31.677-31.677 35.62-77.188 13.834-114.812 5.689-14.804 13.834-21.786 13.834-21.786l71.305-73.245c8.016-7.952 8.016-17.843 2.068-23.79zM210.359 309.592c-25.73 25.73-67.297 27.734-95.031 2.004-27.734-23.79-29.672-65.358-3.944-91.087s67.297-27.733 95.031-2.004 29.673 65.358 3.944 91.087z" horiz-adv-x="396" />
</font>
</defs>
</svg>
